{"title":"The Water Horse.2007.DvDRip.XViD.Swe_Sub.avi","uid":5495257,"size":739295480,"categoryP":"video","categoryS":"movies","magnet":"?xt=urn:btih:6294d3699024b69e4aa3d57e48f45140e50400ca&amp;dn=The+Water+Horse.2007.DvDRip.XViD.Swe_Sub.avi&amp;tr=udp%3A%2F%2Ftracker.openbittorrent.com%3A80&amp;tr=udp%3A%2F%2Fopen.demonii.com%3A1337&amp;tr=udp%3A%2F%2Ftracker.coppersurfer.tk%3A6969&amp;tr=udp%3A%2F%2Fexodus.desync.com%3A6969","seeders":1,"leechers":0,"uploader":"Zen_Bud","files":-1,"time":1271234708,"description":"General\nComplete name                    : The Water Horse- Legend of the Deep.avi\nFormat                           : AVI\nFormat/Info                      : Audio Video Interleave\nFile size                        : 705 MiB\nDuration                         : 1h 51mn\nOverall bit rate                 : 881 Kbps\n\nVideo\nID                               : 0\nFormat                           : MPEG-4 Visual\nCodec ID/Hint                    : XviD\nDuration                         : 1h 51mn\nBit rate                         : 756 Kbps\nWidth                            : 720 pixels\nHeight                           : 412 pixels\nDisplay aspect ratio             : 2.485\nFrame rate                       : 25.000 fps\nResolution                       : 8 bits\nColorimetry                      : 4:2:0\nScan type                        : Progressive\nBits/(Pixel*Frame)               : 0.102\nStream size                      : 605 MiB (86%)\nWriting library                  : XviD 1.1.2 (UTC 2006-11-01)\n\nAudio\nID                               : 1\nFormat                           : MPEG Audio\nFormat_Settings_ModeExtension    : MS Stereo\nCodec ID                         : 55\nCodec ID/Hint                    : MP3\nDuration                         : 1h 51mn\nBit rate mode                    : Constant\nBit rate                         : 112 Kbps\nChannel(s)                       : 2 channels\nSampling rate                    : 48.0 KHz\nStream size                      : 89.6 MiB (13%)\nWriting library                  : LAME3.98\n\n","torrent":{"xt":"urn:btih:6294d3699024b69e4aa3d57e48f45140e50400ca","amp;dn":"The+Water+Horse.2007.DvDRip.XViD.Swe_Sub.avi","amp;tr":["udp%3A%2F%2Ftracker.openbittorrent.com%3A80","udp%3A%2F%2Fopen.demonii.com%3A1337","udp%3A%2F%2Ftracker.coppersurfer.tk%3A6969","udp%3A%2F%2Fexodus.desync.com%3A6969"],"infoHash":"6294d3699024b69e4aa3d57e48f45140e50400ca","infoHashBuffer":{"type":"Buffer","data":[98,148,211,105,144,36,182,158,74,163,213,126,72,244,81,64,229,4,0,202]},"announce":[],"urlList":[]}}